{
    "asset" : {
        "generator" : "Khronos glTF Blender I/O v3.2.43",
        "version" : "2.0"
    },
    "scene" : 0,
    "scenes" : [
        {
            "name" : "Scene",
            "nodes" : [
                0
            ]
        }
    ],
    "nodes" : [
        {
            "mesh" : 0,
            "name" : "Curve",
            "scale" : [
                1.526317834854126,
                1.526317834854126,
                1.526317834854126
            ],
            "translation" : [
                0.5011110305786133,
                0.09251976758241653,
                -0.5013040900230408
            ]
        }
    ],
    "materials" : [
        {
            "doubleSided" : true,
            "name" : "SVGMat",
            "pbrMetallicRoughness" : {
                "baseColorFactor" : [
                    0,
                    0,
                    0,
                    1
                ],
                "metallicFactor" : 0,
                "roughnessFactor" : 0.4000000059604645
            }
        }
    ],
    "meshes" : [
        {
            "name" : "Curve",
            "primitives" : [
                {
                    "attributes" : {
                        "POSITION" : 0,
                        "NORMAL" : 1,
                        "TEXCOORD_0" : 2
                    },
                    "indices" : 3,
                    "material" : 0
                }
            ]
        }
    ],
    "accessors" : [
        {
            "bufferView" : 0,
            "componentType" : 5126,
            "count" : 2052,
            "max" : [
                0.33758544921875,
                0.05999999865889549,
                0.3284119665622711
            ],
            "min" : [
                -0.3256503939628601,
                -0.05999999865889549,
                -0.3247233033180237
            ],
            "type" : "VEC3"
        },
        {
            "bufferView" : 1,
            "componentType" : 5126,
            "count" : 2052,
            "type" : "VEC3"
        },
        {
            "bufferView" : 2,
            "componentType" : 5126,
            "count" : 2052,
            "type" : "VEC2"
        },
        {
            "bufferView" : 3,
            "componentType" : 5123,
            "count" : 3744,
            "type" : "SCALAR"
        }
    ],
    "bufferViews" : [
        {
            "buffer" : 0,
            "byteLength" : 24624,
            "byteOffset" : 0
        },
        {
            "buffer" : 0,
            "byteLength" : 24624,
            "byteOffset" : 24624
        },
        {
            "buffer" : 0,
            "byteLength" : 16416,
            "byteOffset" : 49248
        },
        {
            "buffer" : 0,
            "byteLength" : 7488,
            "byteOffset" : 65664
        }
    ],
    "buffers" : [
        {
            "byteLength" : 73152,
            "uri" : "data:application/octet-stream;base64,"
        }
    ]
}
